<svg xmlns="http://www.w3.org/2000/svg" width="32" height="32" fill="none" viewBox="0 0 32 32"><style>.bg{fill:#001a72}.fg{fill:#fff}@media (prefers-color-scheme:light){.bg{fill:#fff}.fg{fill:#001a72}}</style><g clip-path="url(#clip0_1_5403)"><path d="M4.37 31.323h27.168V4.37L27.693.523H.523v26.954z" class="bg"/><path fill-rule="evenodd" d="M.099.083h27.785L32 4.2v27.606H4.215L.1 27.69zm.923 1.576v25.648l2.923 2.923V4.582zm.653-.653L4.598 3.93h25.826l-2.923-2.923zm29.402 29.877H4.868V4.853h26.209z" class="fg" clip-rule="evenodd"/><path d="M12.6 10.8h1.8v1.8h-1.8zm1.8 0h1.8v1.8h-1.8zm0-1.8h1.8v1.8h-1.8zm1.8 1.8H18v1.8h-1.8zm0 1.8H18v1.8h-1.8zm1.8 0h1.8v1.8H18zm-3.6 0h1.8v1.8h-1.8zm-1.8 0h1.8v1.8h-1.8zm-1.8 0h1.8v1.8h-1.8zm0 1.8h1.8v1.8h-1.8zm-1.8 0h1.8v1.8H9zm3.6 0h1.8v1.8h-1.8zm-1.8 1.8h1.8V18h-1.8zm0 1.8h1.8v1.8h-1.8zm0 1.8h1.8v1.8h-1.8zm1.8 0h1.8v1.8h-1.8zm1.8 0h1.8v1.8h-1.8zm1.8 0H18v1.8h-1.8zm1.8 0h1.8v1.8H18zm1.8 0h1.8v1.8h-1.8zm0-1.8h1.8v1.8h-1.8zm0-1.8h1.8V18h-1.8zm0-1.8h1.8v1.8h-1.8zm-1.8 0h1.8v1.8H18zm-1.8 0H18v1.8h-1.8zm1.8 1.8h1.8V18H18zm0 1.8h1.8v1.8H18zm0 3.6h1.8v1.8H18zm1.8 0h1.8v1.8h-1.8zm0 1.8h1.8v1.8h-1.8zm0 1.8h1.8V27h-1.8zm-1.8 0h1.8V27H18zm0-1.8h1.8v1.8H18zm-1.8-1.8H18v1.8h-1.8zm-1.8 0h1.8v1.8h-1.8zm-1.8 0h1.8v1.8h-1.8zm-1.8 0h1.8v1.8h-1.8zm0 1.8h1.8v1.8h-1.8zm0 1.8h1.8V27h-1.8zm-1.8 0h1.8V27H9zm0-1.8h1.8v1.8H9zm0-1.8h1.8v1.8H9zm0-1.8h1.8v1.8H9zM9 18h1.8v1.8H9zm0-1.8h1.8V18H9zm14.405 9h1.8V27h-1.8zm1.8 0h1.8V27h-1.8zm0-1.8h1.8v1.8h-1.8zm0-1.8h1.8v1.8h-1.8zm0-1.8h1.8v1.8h-1.8zm0-1.8h1.8v1.8h-1.8zm0-1.8h1.8V18h-1.8zm-1.8 0h1.8V18h-1.8zm0 1.8h1.8v1.8h-1.8zm0 1.8h1.8v1.8h-1.8zm0 1.8h1.8v1.8h-1.8zm0 1.8h1.8v1.8h-1.8zm0-9h1.8v1.8h-1.8zm1.8 0h1.8v1.8h-1.8zm0-1.8h1.8v1.8h-1.8zm0-1.8h1.8v1.8h-1.8zm0-1.8h1.8v1.8h-1.8zm-1.8 0h1.8v1.8h-1.8zm0 1.8h1.8v1.8h-1.8zm0 1.8h1.8v1.8h-1.8z" class="fg"/></g><defs><clipPath id="clip0_1_5403"><path fill="#fff" d="M0 0h32v32H0z"/></clipPath></defs></svg>
