<svg xmlns="http://www.w3.org/2000/svg" width="32" height="32" fill="none" viewBox="0 0 40 40"><style>.u{fill:#a9d1eb}.p{fill:#c39cdd}.n{fill:#fff}.w{fill:#001a72}@media (prefers-color-scheme:dark){.u{fill:#1481b8}.p{fill:#9a5bb9}.n{fill:#001a72}.w{fill:#fff}}</style><path d="M8.78 7.693h28.596L31.22 1.537H2.624z" class="u"/><path fill-rule="evenodd" d="M40 40H8.143L0 31.857V0h31.857L40 8.143zM37.376 7.693H8.779L2.624 1.538h28.597zm1.087 30.77H9.23V9.23h29.232zm-30.77-1.087L1.537 31.22V2.624L7.693 8.78z" class="w" clip-rule="evenodd"/><path d="M7.693 37.376 1.537 31.22V2.624L7.693 8.78z" class="p"/><path fill-rule="evenodd" d="M38.463 38.463H9.23V9.23h29.232z" class="n" clip-rule="evenodd"/><path d="M23.846 32.57q-2.002 0-3.614-.599a7.8 7.8 0 0 1-2.73-1.716 7.35 7.35 0 0 1-1.742-2.704q-.598-1.611-.598-3.562 0-2.002.65-3.614a8 8 0 0 1 1.846-2.808 8 8 0 0 1 2.834-1.82q1.638-.624 3.614-.624 2.21 0 3.874.754 1.69.755 2.704 2.132 1.014 1.353 1.196 3.224h-2.262a5.2 5.2 0 0 0-1.092-2.054 5.04 5.04 0 0 0-1.872-1.326q-1.117-.468-2.548-.468-1.95 0-3.38.858a5.8 5.8 0 0 0-2.236 2.34q-.806 1.482-.806 3.406 0 1.899.702 3.328a5.4 5.4 0 0 0 2.106 2.21q1.404.78 3.38.78 1.535 0 2.678-.52a5 5.2 0 0 0 1.898-1.508q.755-.987 1.04-2.366l1.3-.156q-.39 3.354-2.236 5.096-1.846 1.716-4.706 1.716m6.37-.287q0-.831.052-1.898l.156-2.184q.104-1.117.182-2.002h-6.318V24.17h8.242v8.112z" class="w"/></svg>
