<svg xmlns="http://www.w3.org/2000/svg" width="40" height="40" fill="none" viewBox="0 0 40 40"><style>.u{fill:#a9d1eb}.p{fill:#c39cdd}.n{fill:#fff}.w{fill:#001a72}@media (prefers-color-scheme:dark){.u{fill:#1481b8}.p{fill:#9a5bb9}.n{fill:#001a72}.w{fill:#fff}}</style><path fill-rule="evenodd" d="m14.41 21.885.819-1.808h4.33l.826 1.808h1.859l-3.936-8.295h-1.846l-3.898 8.295zm1.463-3.231 1.513-3.341 1.524 3.34z" class="w" clip-rule="evenodd"/><path d="M29.693 35.039a7.6 7.6 0 0 1-2.09-.27A4.6 4.6 0 0 1 26 33.963a3.6 3.6 0 0 1-1.026-1.334q-.358-.794-.358-1.833 0-1.05.371-1.859a3.9 3.9 0 0 1 1.077-1.384 4.8 4.8 0 0 1 1.667-.847 7.4 7.4 0 0 1 2.154-.295q1.397 0 2.41.398 1.012.384 1.59 1.09.59.705.667 1.68H32.91a2.1 2.1 0 0 0-.552-.886q-.372-.384-.987-.59-.615-.217-1.487-.217-1.116 0-1.91.359-.783.36-1.193 1.013-.41.654-.41 1.538 0 .859.359 1.487.36.615 1.102.95.757.332 1.924.332.897 0 1.577-.23a3.6 3.6 0 0 0 1.153-.641q.396-.352.594-.77h-3.183v-1.09h4.948v4.04h-1.474q0-.4.051-.911.052-.525.129-1.051l.055-.39a3.44 3.44 0 0 1-1.055 1.595q-1.077.923-2.86.923" class="w"/><path d="M8.78 7.693h28.596L31.22 1.537H2.624z" class="u"/><path fill-rule="evenodd" d="M40 40H8.143L0 31.857V0h31.857L40 8.143zM37.376 7.693H8.779L2.624 1.538h28.597zm1.087 30.77H9.23V9.23h29.232zm-30.77-1.087L1.537 31.22V2.624L7.693 8.78z" class="w" clip-rule="evenodd"/><path d="M7.693 37.376 1.537 31.22V2.624L7.693 8.78z" class="p"/><path fill-rule="evenodd" d="m14.41 21.885.819-1.808h4.33l.826 1.808h1.859l-3.936-8.295h-1.846l-3.898 8.295zm4.5-3.231h-3.037l1.513-3.341zm10.783 16.385a7.6 7.6 0 0 1-2.09-.27A4.6 4.6 0 0 1 26 33.963a3.6 3.6 0 0 1-1.026-1.334q-.358-.794-.358-1.833 0-1.05.371-1.859a3.9 3.9 0 0 1 1.077-1.384 4.8 4.8 0 0 1 1.667-.847 7.4 7.4 0 0 1 2.154-.295q1.397 0 2.41.398 1.012.384 1.59 1.09.59.705.667 1.68H32.91a2.1 2.1 0 0 0-.552-.886q-.372-.384-.987-.59-.615-.217-1.487-.217-1.116 0-1.91.359-.783.36-1.193 1.013-.41.654-.41 1.538 0 .859.359 1.487.36.615 1.102.95.757.332 1.924.332.897 0 1.577-.23a3.6 3.6 0 0 0 1.153-.641q.396-.352.594-.77h-3.183v-1.09h4.948v4.04h-1.474q0-.4.051-.911.052-.525.129-1.051l.055-.39a3.44 3.44 0 0 1-1.055 1.595q-1.077.923-2.86.923m8.77 3.423H9.23V9.23h29.232zM15 33.283v-2.038h5.23v-1.346H15v-2.064h6.385V26.41h-8.09v8.296h8.103v-1.424z" class="n" clip-rule="evenodd"/><path d="M15 31.244v2.038h6.398v1.424h-8.103V26.41h8.09v1.424H15v2.064h5.23v1.346z" class="w"/></svg>
